# Blender 4.4.0
# www.blender.org
o Border
v 0.606855 -0.265783 -0.606855
v 1.000000 -1.000000 -1.000000
v 0.606855 -0.265783 0.606855
v 1.000000 -1.000000 1.000000
v -0.606855 -0.265783 -0.606855
v -1.000000 -1.000000 -1.000000
v -0.606855 -0.265783 0.606855
v -1.000000 -1.000000 1.000000
v 0.785935 -0.265783 0.785935
v -0.785935 -0.265783 0.785935
v 0.785935 -0.265783 -0.785935
v -0.785935 -0.265783 -0.785935
vn -0.0000 0.2799 0.9600
vn -0.9600 0.2799 -0.0000
vn 0.9600 0.2799 -0.0000
vn -0.0000 0.2799 -0.9600
vn -0.0000 1.0000 -0.0000
vt 0.375000 0.750000
vt 0.625000 0.750000
vt 0.625000 1.000000
vt 0.375000 1.000000
vt 0.375000 0.000000
vt 0.625000 0.000000
vt 0.625000 0.250000
vt 0.375000 0.250000
vt 0.375000 0.500000
vt 0.625000 0.500000
vt 0.653482 0.721518
vt 0.846518 0.721518
vt 0.875000 0.750000
vt 0.653482 0.528482
vt 0.846518 0.528482
vt 0.875000 0.500000
s 0
f 4/1/1 9/2/1 10/3/1 8/4/1
f 8/5/2 10/6/2 12/7/2 6/8/2
f 2/9/3 11/10/3 9/2/3 4/1/3
f 6/8/4 12/7/4 11/10/4 2/9/4
f 3/11/5 7/12/5 10/13/5 9/2/5
f 1/14/5 3/11/5 9/2/5 11/10/5
f 7/12/5 5/15/5 12/16/5 10/13/5
f 5/15/5 1/14/5 11/10/5 12/16/5
o Button
v 0.606855 -0.464205 -0.606855
v 0.606855 -0.464205 0.606855
v -0.606855 -0.464205 -0.606855
v -0.606855 -0.464205 0.606855
v 0.606855 0.148604 -0.606855
v 0.606855 0.148604 0.606855
v -0.606855 0.148604 -0.606855
v -0.606855 0.148604 0.606855
vn -1.0000 -0.0000 -0.0000
vn -0.0000 1.0000 -0.0000
vn -0.0000 -0.0000 1.0000
vn -0.0000 -0.0000 -1.0000
vn 1.0000 -0.0000 -0.0000
vt 0.846518 0.528482
vt 0.846518 0.721518
vt 0.653482 0.528482
vt 0.653482 0.721518
s 0
f 15/17/6 16/18/6 20/18/6 19/17/6
f 17/19/7 19/17/7 20/18/7 18/20/7
f 16/18/8 14/20/8 18/20/8 20/18/8
f 13/19/9 15/17/9 19/17/9 17/19/9
f 14/20/10 13/19/10 17/19/10 18/20/10
